<?xml version="1.0" standalone="no"?>
<!DOCTYPE svg PUBLIC "-//W3C//DTD SVG 20010904//EN"
 "http://www.w3.org/TR/2001/REC-SVG-20010904/DTD/svg10.dtd">
<svg version="1.0" xmlns="http://www.w3.org/2000/svg"
 width="102.000000pt" height="42.000000pt" viewBox="0 0 102.000000 42.000000"
 preserveAspectRatio="xMidYMid meet">

<g transform="translate(0.000000,42.000000) scale(0.100000,-0.100000)"
fill="#000000" stroke="none">
<path d="M460 341 c0 -47 4 -81 10 -81 6 0 10 16 10 35 0 31 3 35 25 35 31 0
33 17 3 22 -35 5 -35 36 -1 40 41 4 34 22 -9 26 l-38 3 0 -80z"/>
<path d="M135 376 c-22 -19 -38 -36 -35 -39 11 -9 100 -35 100 -29 0 4 -6 28
-13 54 l-12 47 -40 -33z"/>
<path d="M760 395 c0 -8 5 -15 10 -15 6 0 10 7 10 15 0 8 -4 15 -10 15 -5 0
-10 -7 -10 -15z"/>
<path d="M560 326 c0 -56 8 -66 51 -66 l39 0 0 50 c0 28 -4 50 -10 50 -5 0
-10 -15 -10 -33 0 -18 -5 -38 -12 -45 -18 -18 -38 5 -38 44 0 19 -4 34 -10 34
-5 0 -10 -15 -10 -34z"/>
<path d="M676 343 c-5 -12 0 -23 13 -35 28 -22 27 -37 -1 -31 -22 4 -22 4 -5
-11 22 -17 43 -12 52 12 4 11 -3 25 -22 40 -18 15 -22 22 -11 20 9 -2 18 2 20
7 6 19 -39 17 -46 -2z"/>
<path d="M760 310 c0 -27 5 -50 10 -50 6 0 10 23 10 50 0 28 -4 50 -10 50 -5
0 -10 -22 -10 -50z"/>
<path d="M820 340 c-11 -11 -20 -27 -20 -35 0 -19 36 -55 55 -55 21 0 55 36
55 58 0 23 -30 52 -53 52 -9 0 -26 -9 -37 -20z m64 -22 c13 -22 -14 -54 -38
-45 -16 6 -22 48 -9 61 11 11 35 3 47 -16z"/>
<path d="M930 308 c0 -26 5 -48 10 -48 6 0 10 11 10 24 0 35 10 56 26 56 10 0
14 -12 14 -40 0 -29 4 -40 15 -40 10 0 15 10 15 31 0 50 -16 69 -55 67 -35 -1
-35 -1 -35 -50z"/>
<path d="M10 285 c0 -30 2 -55 4 -55 2 0 27 11 55 23 l50 24 -45 31 c-24 18
-49 32 -54 32 -6 0 -10 -25 -10 -55z"/>
<path d="M230 325 c0 -15 54 -85 61 -78 4 4 15 25 24 46 l15 37 -50 0 c-27 0
-50 -2 -50 -5z"/>
<path d="M321 215 l-20 -35 44 0 44 0 -20 35 c-12 19 -22 35 -24 35 -2 0 -12
-16 -24 -35z"/>
<path d="M460 80 c0 -47 4 -80 10 -80 6 0 10 18 10 40 0 36 3 40 25 40 14 0
25 5 25 10 0 6 -11 10 -25 10 -18 0 -25 5 -25 20 0 16 7 20 30 20 17 0 30 5
30 10 0 6 -18 10 -40 10 l-40 0 0 -80z"/>
<path d="M860 131 c0 -24 -4 -28 -26 -28 -32 0 -46 -15 -46 -47 0 -40 19 -57
61 -53 l36 4 3 77 c2 63 0 76 -13 76 -10 0 -15 -10 -15 -29z m-2 -80 c-4 -35
-41 -37 -46 -2 -4 26 13 42 35 34 8 -3 13 -16 11 -32z"/>
<path d="M703 102 c-20 -3 -23 -9 -23 -53 0 -27 5 -49 10 -49 6 0 10 18 10 39
0 24 5 41 14 44 20 8 26 -2 26 -45 0 -21 5 -38 10 -38 6 0 10 22 10 49 0 52
-10 61 -57 53z"/>
<path d="M560 61 c0 -45 13 -58 58 -58 32 0 32 1 32 49 0 26 -4 48 -10 48 -5
0 -10 -11 -10 -24 0 -34 -10 -56 -25 -56 -15 0 -25 22 -25 56 0 13 -4 24 -10
24 -5 0 -10 -17 -10 -39z"/>
</g>
</svg>
