<svg width="242" height="91" viewBox="0 0 242 91" xmlns="http://www.w3.org/2000/svg"><title>Logo</title><g fill="none" fill-rule="evenodd"><path d="M87.337 28.565c.11 0 .139-.055.11-.137l-2.27-5.92c-.03-.082-.057-.22-.11-.22-.083 0-.11.138-.138.22L82.604 28.4c-.055.11 0 .165.082.165h4.651zm-5.144 1.29c-.136 0-.164.025-.219.162l-1.286 3.125c-.246.574-.356 1.152-.356 1.426 0 .41.22.656.958.656h.356c.301 0 .356.11.356.248 0 .192-.137.245-.385.245-.792 0-1.916-.082-2.68-.082-.247 0-1.533.082-2.792.082-.3 0-.438-.053-.438-.245 0-.138.082-.248.274-.248.219 0 .494-.027.711-.027 1.095-.165 1.506-.878 1.998-2.055l6.294-14.663c.275-.656.466-.932.711-.932.357 0 .467.22.712.74.576 1.289 4.598 10.826 6.129 14.362.932 2.11 1.616 2.412 2.053 2.494.356.054.63.081.903.081.22 0 .328.082.328.248 0 .192-.135.245-1.038.245-.85 0-2.6 0-4.626-.053-.439-.029-.711-.029-.711-.192 0-.138.055-.22.3-.248.164-.027.33-.247.22-.52l-1.861-4.687c-.055-.137-.136-.163-.247-.163h-5.664zm18.939-2.441c0 2.467.028 4.248.054 4.714.026.574.082 1.397.274 1.643.302.439 1.259.932 3.147.932 2.188 0 3.803-.383 5.254-1.59 1.558-1.286 2.051-3.37 2.051-5.782 0-2.958-1.175-4.877-2.241-5.81-2.219-1.973-4.846-2.22-6.733-2.22-.493 0-1.286.055-1.478.164-.219.083-.3.193-.3.467-.028.795-.028 2.712-.028 4.549v2.933zm-3.23-2.575c0-3.536 0-4.194-.025-4.934-.057-.795-.275-1.043-1.042-1.261-.19-.055-.603-.084-.958-.084-.247 0-.41-.08-.41-.245 0-.165.192-.22.548-.22 1.26 0 2.79.055 3.474.055.74 0 2.464-.054 3.914-.054 3.01 0 7.061 0 9.687 2.658 1.203 1.206 2.272 3.151 2.272 5.92 0 2.932-1.259 5.153-2.627 6.494-1.095 1.098-3.64 2.741-8.073 2.741-.876 0-1.916-.082-2.874-.135-.958-.084-1.832-.139-2.434-.139-.275 0-.794.03-1.37.03-.575.025-1.177.053-1.67.053-.3 0-.463-.083-.463-.246 0-.11.082-.248.381-.248.356 0 .631-.027.849-.082.494-.11.63-.547.711-1.234.11-.986.11-2.821.11-4.96v-4.11zM117.5 20.37c-.548-1.289-.903-1.508-1.78-1.726-.356-.084-.738-.084-.93-.084-.218 0-.271-.108-.271-.245 0-.192.243-.22.599-.22 1.288 0 2.655.056 3.503.056.602 0 1.861-.055 3.065-.055.301 0 .575.055.575.22 0 .162-.164.244-.383.244-.383 0-.739.03-.932.166a.505.505 0 0 0-.243.466c0 .302.218.932.545 1.753l4.051 10.443h.08c1.042-2.412 4.135-9.922 4.708-11.456.11-.301.22-.659.22-.85 0-.248-.11-.328-.33-.412-.271-.08-.655-.11-.956-.11-.22 0-.412-.082-.412-.245 0-.164.22-.22.686-.22 1.203 0 2.27.056 2.571.056.41 0 1.533-.055 2.27-.055.303 0 .495.055.495.22 0 .162-.139.244-.384.244-.246 0-.766-.026-1.177.274-.3.221-.629.578-1.259 2.056-.956 2.193-1.585 3.455-2.9 6.303-1.533 3.4-2.655 5.948-3.201 7.127-.602 1.344-.821 1.7-1.151 1.7-.329 0-.519-.302-.986-1.399L117.5 20.37zm23.835 8.195c.111 0 .138-.055.111-.137l-2.272-5.92c-.027-.082-.054-.22-.11-.22-.081 0-.109.138-.135.22l-2.326 5.892c-.056.11 0 .165.082.165h4.65zm-5.142 1.29c-.139 0-.166.025-.22.162l-1.286 3.125c-.248.574-.357 1.152-.357 1.426 0 .41.22.656.96.656h.354c.3 0 .357.11.357.248 0 .192-.137.245-.383.245-.794 0-1.916-.082-2.684-.082-.245 0-1.531.082-2.79.082-.301 0-.438-.053-.438-.245 0-.138.084-.248.275-.248.218 0 .491-.027.712-.027 1.095-.165 1.505-.878 1.996-2.055l6.294-14.663c.273-.656.465-.932.713-.932.354 0 .464.22.711.74.574 1.289 4.597 10.826 6.128 14.362.93 2.11 1.615 2.412 2.054 2.494.355.054.628.081.903.081.22 0 .327.082.327.248 0 .192-.136.245-1.04.245-.847 0-2.598 0-4.625-.053-.436-.029-.712-.029-.712-.192 0-.138.057-.22.302-.248.167-.027.33-.247.22-.52l-1.86-4.687c-.056-.137-.138-.163-.247-.163h-5.664z" fill="#000"/><path d="M153.406 32.54c.055 1.808.356 2.356.821 2.52.41.136.878.164 1.26.164.273 0 .411.111.411.248 0 .192-.22.245-.549.245-1.558 0-2.68-.082-3.121-.082-.216 0-1.366.082-2.599.082-.327 0-.546-.026-.546-.245 0-.137.165-.248.384-.248.328 0 .764-.028 1.094-.11.63-.163.712-.795.74-2.823l.218-13.812c0-.465.164-.795.41-.795.299 0 .629.356 1.04.768.302.301 3.913 4.002 7.416 7.426 1.641 1.618 4.843 4.907 5.199 5.236h.111l-.248-10.36c-.027-1.424-.245-1.835-.82-2.056-.357-.137-.93-.137-1.26-.137-.3 0-.382-.11-.382-.245 0-.192.245-.22.603-.22 1.257 0 2.543.054 3.063.054.274 0 1.177-.055 2.354-.055.329 0 .546.03.546.221 0 .136-.134.245-.41.245-.245 0-.437 0-.738.082-.658.192-.848.603-.876 1.92l-.273 14.69c0 .52-.192.74-.384.74-.41 0-.739-.247-.985-.495-1.505-1.398-4.514-4.275-7.032-6.716-2.628-2.52-5.172-5.342-5.637-5.753h-.083l.273 9.51zm20.883.957c-2.38-2-3.01-4.63-3.01-6.879 0-1.588.52-4.33 2.818-6.383 1.752-1.537 4.05-2.469 7.636-2.469 1.506 0 2.409.11 3.503.248.904.136 1.696.302 2.407.383.274.029.356.138.356.274 0 .19-.053.466-.11 1.288-.054.768-.054 2.056-.081 2.52-.028.33-.11.578-.33.578-.192 0-.244-.192-.244-.494a3.296 3.296 0 0 0-.932-2.165c-.82-.795-2.437-1.37-4.65-1.37-2.108 0-3.45.383-4.544 1.315-1.778 1.533-2.217 3.783-2.217 6.056 0 5.537 4.268 8.168 7.498 8.168 2.136 0 3.311-.165 4.268-1.233.41-.467.74-1.125.82-1.562.057-.357.112-.468.303-.468.166 0 .275.22.275.413 0 .272-.275 2.3-.521 3.096-.108.41-.219.52-.63.685-.956.384-2.791.52-4.35.52-3.285 0-6.076-.684-8.265-2.521m18.009-8.659c0-3.536 0-4.193-.029-4.934-.053-.794-.301-1.069-.821-1.233a3.054 3.054 0 0 0-.874-.111c-.245 0-.384-.053-.384-.273 0-.137.192-.192.574-.192.903 0 2.546.055 3.23.055.603 0 2.161-.055 3.092-.055.302 0 .493.055.493.192 0 .22-.139.273-.384.273-.246 0-.437.029-.711.084-.656.11-.847.438-.903 1.26-.054.74-.054 1.398-.054 4.934v4.112c0 2.245 0 4.11.11 5.097.082.629.245.985.956 1.096.33.054.876.081 1.233.081.273 0 .384.139.384.248 0 .163-.192.245-.469.245-1.586 0-3.226-.082-3.885-.082-.546 0-2.19.082-3.146.082-.3 0-.466-.082-.466-.245 0-.11.085-.248.386-.248.354 0 .626-.027.847-.08.49-.112.63-.44.711-1.126.11-.958.11-2.823.11-5.068v-4.112zm12.098 7.702c.053 1.808.354 2.356.82 2.52.411.136.877.164 1.258.164.274 0 .41.111.41.248 0 .192-.218.245-.547.245-1.558 0-2.68-.082-3.117-.082-.22 0-1.371.082-2.6.082-.33 0-.549-.026-.549-.245 0-.137.165-.248.382-.248.33 0 .77-.028 1.095-.11.63-.163.713-.795.74-2.823l.22-13.812c0-.465.163-.795.41-.795.302 0 .628.356 1.038.768.301.301 3.914 4.002 7.417 7.426 1.642 1.618 4.845 4.907 5.199 5.236h.11l-.245-10.36c-.028-1.424-.247-1.835-.821-2.056-.358-.137-.931-.137-1.26-.137-.302 0-.384-.11-.384-.245 0-.192.248-.22.602-.22 1.26 0 2.547.054 3.064.054.277 0 1.18-.055 2.355-.055.33 0 .549.03.549.221 0 .136-.138.245-.41.245-.248 0-.44 0-.741.082-.655.192-.85.603-.874 1.92l-.275 14.69c0 .52-.192.74-.384.74-.412 0-.737-.247-.985-.495-1.505-1.398-4.516-4.275-7.034-6.716-2.624-2.52-5.17-5.342-5.635-5.753h-.082l.274 9.51zm35.03 1.616c0 .63 0 .657-.301.821-1.615.797-3.998 1.042-5.886 1.042-5.91 0-11.136-2.685-11.136-9.126 0-3.727 1.997-6.33 4.216-7.619 2.297-1.342 4.458-1.508 6.483-1.508 1.67 0 3.776.275 4.269.384.492.084 1.342.22 1.915.247.274.029.33.11.33.274 0 .274-.165.905-.165 3.837 0 .357-.136.521-.327.521-.166 0-.22-.11-.248-.301-.053-.521-.192-1.263-.821-1.919-.712-.742-2.518-1.78-5.228-1.78-1.31 0-2.982.026-4.65 1.369-1.342 1.096-2.218 2.823-2.218 5.674 0 5.015 3.23 8.659 8.374 8.659.63 0 1.122 0 1.696-.246.358-.166.467-.412.467-.822v-2.138c0-1.151 0-2.028-.029-2.742-.027-.794-.272-1.04-1.04-1.26-.191-.055-.602-.08-.929-.08-.219 0-.383-.11-.383-.249 0-.192.192-.22.519-.22 1.26 0 2.984.057 3.693.057.768 0 2.027-.056 2.819-.056.33 0 .493.027.493.22 0 .138-.136.247-.301.247-.192 0-.382.026-.656.081-.655.111-.903.439-.93 1.26-.026.714-.026 1.646-.026 2.797v2.576zM81.153 49.364c0-3.536 0-4.193-.028-4.934-.052-.795-.273-1.042-1.039-1.26-.192-.056-.602-.083-.958-.083-.246 0-.41-.081-.41-.247 0-.163.191-.22.548-.22 1.256 0 3.01.057 3.638.057.576 0 2.106-.056 3.066-.056.327 0 .493.056.493.219 0 .166-.138.247-.44.247-.244 0-.41.027-.684.083-.656.11-.847.439-.903 1.26-.054.741-.054 1.398-.054 4.934v4.33c0 .987.083 2.111.083 3.288 0 1.316-.083 2.796-.575 4.112-.52 1.425-1.998 3.068-4.324 4.44-.3.163-.684.355-1.204.603a1.24 1.24 0 0 1-.491.11c-.11 0-.193-.11-.193-.22 0-.109.109-.22.52-.41.328-.168.684-.44 1.149-.905 1.832-1.782 1.806-4.083 1.806-8.662v-6.686zm8.348 0c0-3.536.029-4.193-.029-4.934-.053-.821-.272-1.042-1.038-1.26-.192-.056-.602-.083-.93-.083-.275 0-.411-.081-.411-.247 0-.163.164-.22.52-.22 1.286 0 2.9.057 3.612.057.602 0 2.217-.056 3.093-.056.354 0 .52.056.52.219 0 .166-.138.247-.383.247-.275 0-.41.027-.712.083-.63.11-.82.439-.877 1.26-.055.741-.055 1.398-.055 4.934v3.261c0 3.4.657 4.712 1.834 5.645 1.069.852 2.217.932 3.038.932 1.04 0 2.272-.301 3.23-1.233 1.34-1.26 1.395-3.288 1.395-5.673v-2.932c0-3.536-.028-4.193-.054-4.934-.055-.795-.248-1.042-1.013-1.26-.192-.056-.602-.083-.876-.083s-.41-.081-.41-.247c0-.163.164-.22.492-.22 1.23 0 2.845.057 2.874.057.272 0 1.887-.056 2.819-.056.327 0 .491.056.491.219 0 .166-.138.247-.41.247-.273 0-.41.027-.712.083-.657.11-.821.439-.876 1.26-.027.741-.054 1.398-.054 4.934v2.492c0 2.604-.274 5.347-2.3 7.018-1.696 1.425-3.529 1.67-5.09 1.67-1.256 0-3.747-.053-5.498-1.59-1.232-1.067-2.19-2.794-2.19-6.164v-3.426zm18.666 10.577c-.385-.163-.467-.273-.467-.795 0-1.26.111-2.713.138-3.096 0-.355.11-.603.303-.603.216 0 .243.22.243.382 0 .302.084.798.22 1.207.52 1.728 2.327 2.302 3.83 2.302 2.081 0 3.34-1.313 3.34-2.959 0-1.014-.246-2.028-2.381-3.288l-1.396-.822c-2.845-1.672-3.775-3.236-3.775-5.289 0-2.852 2.736-4.687 6.073-4.687 1.561 0 2.791.218 3.42.384.221.053.33.135.33.301 0 .302-.082.958-.082 2.796 0 .492-.109.739-.302.739-.164 0-.245-.136-.245-.411 0-.218-.11-.93-.63-1.534-.355-.44-1.122-1.096-2.682-1.096-1.722 0-3.284.904-3.284 2.493 0 1.041.383 1.862 2.545 3.068l.987.55c3.174 1.753 4.159 3.534 4.159 5.643 0 1.729-.657 3.125-2.41 4.36-1.148.822-2.736.958-4.022.958-1.396 0-2.874-.136-3.912-.603m18.473-15.895l-3.586.083c-1.396.027-1.97.19-2.326.712-.247.33-.356.63-.41.795-.056.19-.109.302-.274.302-.165 0-.22-.137-.22-.384 0-.384.467-2.631.52-2.823.057-.302.137-.439.274-.439.193 0 .438.192 1.04.276.712.08 1.615.11 2.409.11h9.77c.767 0 1.284-.057 1.641-.11.382-.057.574-.111.657-.111.164 0 .19.137.19.493 0 .493-.055 2.22-.055 2.823-.025.246-.08.384-.218.384-.192 0-.244-.11-.273-.464l-.029-.249c-.053-.603-.684-1.315-2.844-1.343l-3.038-.055v9.428c0 2.14.028 3.973.138 4.987.08.66.217 1.097.929 1.207.328.056.877.082 1.232.082.273 0 .381.137.381.248 0 .163-.19.245-.464.245-1.585 0-3.202-.082-3.885-.082-.548 0-2.189.082-3.148.082-.301 0-.464-.082-.464-.245 0-.111.082-.248.383-.248.356 0 .657-.026.847-.082.494-.11.63-.547.713-1.234.11-.987.11-2.82.11-4.96v-9.428zm12.726 5.318c0-3.536 0-4.193-.026-4.934-.055-.795-.301-1.068-.823-1.232a3.02 3.02 0 0 0-.875-.111c-.245 0-.383-.055-.383-.275 0-.135.191-.191.576-.191.903 0 2.544.056 3.228.056.602 0 2.162-.056 3.091-.056.301 0 .493.056.493.191 0 .22-.134.275-.382.275-.245 0-.438.027-.712.083-.656.11-.847.439-.903 1.26-.055.741-.055 1.398-.055 4.934v4.111c0 2.248 0 4.11.111 5.097.081.63.245.985.957 1.096.328.057.876.081 1.231.081.274 0 .384.139.384.248 0 .163-.192.246-.464.246-1.589 0-3.231-.083-3.888-.083-.547 0-2.188.083-3.146.083-.301 0-.465-.083-.465-.246 0-.11.082-.248.383-.248.354 0 .63-.024.847-.08.494-.112.63-.438.711-1.126.11-.958.11-2.82.11-5.068v-4.111zm10.099 8.661c-2.382-2-3.01-4.632-3.01-6.881 0-1.589.519-4.33 2.818-6.384 1.752-1.537 4.05-2.467 7.634-2.467 1.506 0 2.409.11 3.504.247.903.137 1.695.301 2.408.382.272.029.356.138.356.275 0 .19-.056.466-.108 1.289-.056.766-.056 2.054-.084 2.52-.027.329-.11.577-.327.577-.191 0-.247-.192-.247-.493a3.287 3.287 0 0 0-.93-2.167c-.82-.795-2.435-1.37-4.652-1.37-2.11 0-3.449.383-4.543 1.316-1.78 1.534-2.217 3.782-2.217 6.057 0 5.535 4.27 8.167 7.499 8.167 2.132 0 3.31-.163 4.268-1.234.41-.466.739-1.125.822-1.56.052-.359.108-.47.3-.47.163 0 .274.221.274.413 0 .275-.274 2.301-.522 3.096-.11.411-.217.52-.628.688-.958.382-2.791.518-4.35.518-3.284 0-6.075-.685-8.265-2.519m17.462-8.661c0-3.536 0-4.193-.03-4.934-.052-.795-.271-1.042-1.038-1.26-.191-.056-.603-.083-.958-.083-.246 0-.41-.081-.41-.247 0-.163.19-.22.547-.22 1.258 0 2.792.057 3.476.057.765 0 6.1.027 6.567 0 .438-.028.82-.11 1.011-.137.139-.03.274-.111.384-.111.138 0 .165.11.165.22 0 .163-.138.438-.191 1.508-.03.245-.084 1.26-.137 1.535-.029.108-.082.384-.274.384-.165 0-.191-.11-.191-.302 0-.166-.03-.577-.166-.851-.192-.41-.382-.739-1.586-.848-.412-.057-3.284-.11-3.777-.11-.11 0-.164.08-.164.22v5.753c0 .138.026.248.164.248.547 0 3.666 0 4.215-.056.575-.054.929-.109 1.148-.355.192-.165.276-.302.385-.302.109 0 .191.11.191.247s-.056.52-.191 1.7a22.71 22.71 0 0 0-.109 1.562c0 .192-.028.52-.247.52-.164 0-.22-.083-.22-.193-.028-.247-.028-.548-.083-.85-.135-.464-.436-.822-1.34-.903-.437-.054-3.174-.11-3.776-.11-.111 0-.137.11-.137.247v1.863c0 .795-.026 2.77 0 3.455.055 1.588.795 1.943 3.257 1.943.63 0 1.642-.024 2.27-.301.602-.273.879-.766 1.041-1.724.055-.248.11-.358.273-.358.191 0 .219.302.219.55 0 .518-.192 2.11-.329 2.575-.163.603-.383.603-1.285.603-1.808 0-3.255-.028-4.434-.082-1.176-.028-2.08-.057-2.79-.057-.275 0-.795.03-1.37.03a37.93 37.93 0 0 1-1.668.053c-.3 0-.465-.083-.465-.246 0-.11.082-.248.382-.248.356 0 .63-.024.85-.08.492-.112.63-.547.71-1.236.11-.986.11-2.82.11-4.958v-4.111zM82.209 83.796c.06 0 .073-.036.06-.074l-1.102-3.03c-.013-.047-.026-.11-.062-.11-.036 0-.062.063-.072.11l-1.128 3.02c-.013.048 0 .084.05.084h2.254zm-2.498.614c-.062 0-.087.022-.111.095l-.661 1.756c-.123.305-.183.6-.183.747 0 .22.11.38.488.38h.185c.147 0 .183.026.183.1 0 .098-.074.12-.21.12-.39 0-.915-.037-1.296-.037-.134 0-.808.038-1.445.038-.158 0-.231-.023-.231-.122 0-.073.048-.1.146-.1.11 0 .281-.01.38-.025.563-.072.796-.49 1.04-1.1l3.073-7.702c.147-.355.22-.49.343-.49.11 0 .183.11.307.392.292.674 2.251 5.677 3.035 7.54.465 1.105.82 1.276 1.079 1.338a2.7 2.7 0 0 0 .513.048c.096 0 .158.011.158.1 0 .098-.11.12-.563.12-.44 0-1.334 0-2.313-.022-.22-.015-.368-.015-.368-.099 0-.073.048-.1.172-.11.085-.025.173-.135.11-.282l-.979-2.601c-.026-.062-.062-.084-.124-.084h-2.728z" fill="#000"/><path d="M90.902 83.796c.06 0 .073-.036.06-.074l-1.101-3.03c-.013-.047-.026-.11-.062-.11-.036 0-.062.063-.072.11l-1.128 3.02c-.013.048 0 .084.049.084h2.254zm-2.498.614c-.062 0-.086.022-.11.095l-.662 1.756c-.122.305-.183.6-.183.747 0 .22.111.38.49.38h.183c.147 0 .183.026.183.1 0 .098-.074.12-.21.12-.39 0-.915-.037-1.296-.037-.133 0-.806.038-1.444.038-.159 0-.232-.023-.232-.122 0-.073.047-.1.147-.1.11 0 .28-.01.379-.025.563-.072.796-.49 1.041-1.1l3.073-7.702c.145-.355.219-.49.342-.49.11 0 .183.11.307.392.293.674 2.252 5.677 3.035 7.54.466 1.105.82 1.276 1.08 1.338a2.7 2.7 0 0 0 .512.048c.097 0 .158.011.158.1 0 .098-.109.12-.561.12-.443 0-1.336 0-2.314-.022-.222-.015-.368-.015-.368-.099 0-.073.047-.1.17-.11.086-.025.174-.135.112-.282l-.98-2.601c-.026-.062-.062-.084-.124-.084h-2.728z" fill="#000"/><path d="M96.608 81.894c0-1.863 0-2.206-.025-2.597-.026-.417-.122-.615-.527-.7a2.542 2.542 0 0 0-.478-.036c-.133 0-.206-.026-.206-.11 0-.088.085-.11.268-.11.65 0 1.42.035 1.738.035.294 0 1.068-.036 1.542-.036.171 0 .259.023.259.111 0 .084-.074.11-.22.11-.136 0-.21.012-.358.036-.328.062-.426.271-.452.7-.024.39-.024.734-.024 2.597v2.272c0 .526.037 1.115.037 1.727 0 .698-.049 1.484-.294 2.17-.256.748-.906 1.593-2.081 2.318-.159.1-.355.194-.611.319a.577.577 0 0 1-.245.073.097.097 0 0 1-.1-.1c0-.061.063-.11.271-.219a2.62 2.62 0 0 0 .587-.464c.93-.948.919-2.173.919-4.576v-3.52zm5.398 4.55c-1.2-1.053-1.52-2.428-1.52-3.618 0-.834.26-2.28 1.434-3.358.883-.808 2.044-1.299 3.87-1.299.758 0 1.21.048 1.775.121.466.063.856.172 1.225.208.134.012.183.074.183.147 0 .098-.036.246-.062.676-.023.402-.012 1.08-.036 1.324-.012.185-.038.283-.147.283-.098 0-.123-.098-.123-.272a1.75 1.75 0 0 0-.477-1.126c-.404-.432-1.358-.76-2.487-.76-1.063 0-1.76.27-2.3.76-.894.82-1.126 1.986-1.126 3.175 0 2.917 2.214 4.366 3.856 4.366 1.09 0 1.75-.125 2.24-.689.21-.233.368-.588.417-.808.036-.197.062-.245.16-.245.085 0 .11.084.11.183 0 .146-.148 1.214-.27 1.63-.062.21-.11.272-.317.357-.49.196-1.422.28-2.206.28-1.678 0-3.085-.365-4.199-1.335" fill="#000"/><path d="M29.901 71.668c7.197-.904 14.357-7.069 15.13-14.107.746-6.808-4.52-13.582-15.16-21.616C19.038 27.765 13.468 22.43 11.27 14.85 9.371 8.292 14.354.705 20.328 0c-6.3 5.123-3.403 14.517 21.448 28.042 16.89 9.194 25.881 19.178 23.31 29.33-2.738 10.79-15.907 18.69-35.185 14.296" fill="#F47A20"/><path d="M25.462 70.676c5.927-1.422 10.797-8.36 7.79-15.367-3.01-7.008-10.148-11.322-15.984-16.522-7.626-6.8-9.792-12.765-8.4-17.448-4.42 7.359-5.356 17.596 7.124 29.704 11.87 11.513 12.132 15.471 9.47 19.633M0 57.69c15.99 13.939 36.546 26.677 52.83 28.723-4.966 5.176-14.882 5.2-26.018-1.603C17.66 79.22 5.115 66.766 0 57.69" fill="#F47A20"/><path d="M82.225 7.597c.055 0 .068-.027.055-.068l-1.135-2.96c-.014-.042-.029-.11-.056-.11-.04 0-.055.068-.068.11l-1.162 2.946c-.03.055 0 .082.04.082h2.326zm-2.572.645c-.068 0-.083.013-.11.08L78.9 9.886c-.122.289-.177.576-.177.713 0 .206.11.329.48.329h.177c.15 0 .177.055.177.124 0 .095-.068.123-.192.123-.394 0-.957-.04-1.34-.04-.122 0-.766.04-1.395.04-.151 0-.219-.028-.219-.123 0-.07.04-.124.137-.124.11 0 .246-.013.356-.013.547-.082.753-.439 1-1.029l3.145-7.33c.137-.329.232-.466.356-.466.177 0 .232.11.356.37.287.644 2.298 5.412 3.065 7.18.466 1.056.807 1.206 1.026 1.247.179.028.314.04.452.04.108 0 .163.043.163.125 0 .095-.068.123-.52.123-.423 0-1.3 0-2.31-.028-.22-.013-.358-.013-.358-.095 0-.07.028-.11.151-.124.081-.013.163-.123.109-.26l-.93-2.344c-.027-.068-.067-.081-.123-.081h-2.832zm7.266 2.781c-.192-.082-.232-.137-.232-.398 0-.629.055-1.356.068-1.548 0-.177.054-.301.15-.301.11 0 .123.11.123.191 0 .152.04.399.11.603.26.865 1.164 1.152 1.916 1.152 1.038 0 1.67-.658 1.67-1.48 0-.507-.123-1.015-1.19-1.645l-.7-.411c-1.422-.836-1.888-1.617-1.888-2.645 0-1.425 1.369-2.343 3.038-2.343.78 0 1.395.11 1.71.192.11.028.164.068.164.15 0 .152-.04.48-.04 1.398 0 .247-.056.371-.151.371-.082 0-.123-.07-.123-.206 0-.11-.054-.466-.315-.768-.179-.219-.56-.548-1.34-.548-.863 0-1.642.453-1.642 1.248 0 .52.192.93 1.272 1.534l.493.274c1.587.877 2.08 1.768 2.08 2.823 0 .864-.33 1.562-1.205 2.178-.574.411-1.368.48-2.01.48-.7 0-1.438-.069-1.958-.3m7.704-5.29c0-1.768 0-2.096-.014-2.467-.027-.397-.15-.534-.41-.616a1.517 1.517 0 0 0-.438-.055c-.123 0-.19-.027-.19-.137 0-.07.095-.097.286-.097.451 0 1.273.028 1.615.028.3 0 1.082-.028 1.547-.028.15 0 .245.028.245.097 0 .11-.068.137-.19.137-.124 0-.22.013-.358.04-.328.055-.423.22-.45.63-.028.372-.028.7-.028 2.468v2.055c0 1.124 0 2.056.055 2.548.042.316.124.494.478.55.164.027.44.04.617.04.137 0 .191.068.191.124 0 .081-.095.123-.232.123-.793 0-1.614-.042-1.943-.042-.274 0-1.096.042-1.574.042-.152 0-.232-.042-.232-.123 0-.056.04-.124.191-.124a1.8 1.8 0 0 0 .424-.04c.246-.056.315-.22.356-.563.054-.479.054-1.41.054-2.535V5.734z" fill="#939598"/><path d="M103.217 7.597c.054 0 .067-.027.054-.068l-1.135-2.96c-.014-.042-.027-.11-.056-.11-.04 0-.055.068-.068.11l-1.162 2.946c-.027.055 0 .082.04.082h2.327zm-2.573.645c-.068 0-.082.013-.11.08l-.642 1.563c-.124.289-.179.576-.179.713 0 .206.111.329.48.329h.177c.151 0 .179.055.179.124 0 .095-.07.123-.192.123-.397 0-.958-.04-1.34-.04-.125 0-.767.04-1.397.04-.15 0-.219-.028-.219-.123 0-.07.04-.124.137-.124.11 0 .247-.013.356-.013.547-.082.752-.439.998-1.029l3.148-7.33c.137-.329.233-.466.356-.466.178 0 .231.11.355.37.288.644 2.3 5.412 3.066 7.18.465 1.056.806 1.206 1.025 1.247.177.028.314.04.451.04.111 0 .164.043.164.125 0 .095-.067.123-.518.123-.425 0-1.301 0-2.314-.028-.219-.013-.354-.013-.354-.095 0-.07.026-.11.15-.124.082-.013.164-.123.11-.26l-.931-2.344c-.028-.068-.07-.081-.124-.081h-2.832z" fill="#939598"/><path d="M109.457 9.584c.028.905.18 1.18.411 1.261.205.068.438.083.628.083.137 0 .207.054.207.122 0 .097-.11.124-.275.124-.779 0-1.34-.042-1.56-.042-.108 0-.684.042-1.299.042-.164 0-.274-.014-.274-.124 0-.068.082-.122.192-.122.164 0 .383-.015.547-.055.314-.083.356-.398.369-1.413l.11-6.906c0-.232.082-.396.206-.396.15 0 .315.177.52.383.15.15 1.956 2 3.707 3.714.821.808 2.422 2.452 2.6 2.617h.054l-.121-5.18c-.016-.712-.124-.918-.41-1.028-.18-.068-.466-.068-.632-.068-.15 0-.191-.055-.191-.124 0-.095.123-.11.302-.11.628 0 1.272.028 1.531.028.137 0 .588-.028 1.177-.028.164 0 .274.015.274.11 0 .07-.07.124-.206.124-.123 0-.219 0-.369.04-.328.097-.425.302-.438.96l-.137 7.345c0 .26-.095.37-.191.37-.205 0-.369-.124-.491-.246-.754-.7-2.26-2.138-3.518-3.357-1.314-1.261-2.586-2.674-2.818-2.879h-.041l.136 4.755zm17.817-1.987c.055 0 .068-.027.055-.068l-1.135-2.96c-.015-.042-.03-.11-.057-.11-.04 0-.054.068-.067.11l-1.163 2.946c-.027.055 0 .082.04.082h2.327zm-2.573.645c-.067 0-.082.013-.11.08l-.642 1.563c-.122.289-.178.576-.178.713 0 .206.11.329.48.329h.178c.15 0 .177.055.177.124 0 .095-.069.123-.191.123-.396 0-.958-.04-1.341-.04-.124 0-.767.04-1.396.04-.152 0-.22-.028-.22-.123 0-.07.043-.124.138-.124.11 0 .246-.013.355-.013.548-.082.752-.439.999-1.029l3.147-7.33c.137-.329.232-.466.356-.466.177 0 .232.11.356.37.286.644 2.299 5.412 3.065 7.18.465 1.056.807 1.206 1.026 1.247.178.028.315.04.452.04.108 0 .163.043.163.125 0 .095-.068.123-.52.123-.424 0-1.298 0-2.312-.028-.22-.013-.355-.013-.355-.095 0-.07.026-.11.15-.124.082-.013.164-.123.11-.26l-.93-2.344c-.028-.068-.069-.081-.125-.081h-2.832z" fill="#939598"/><path d="M133.487 2.404c.027-.192.136-.302.232-.302.123 0 .206.055.37.37l3.23 6.496 3.227-6.579c.097-.191.206-.287.316-.287.095 0 .232.123.274.37l1.094 7.194c.11.727.22 1.042.588 1.151.343.097.534.11.684.11.11 0 .192.042.192.11 0 .096-.137.137-.316.137-.3 0-2.01-.055-2.489-.082-.286-.015-.356-.068-.356-.137 0-.055.055-.096.137-.123.07-.028.097-.165.055-.493l-.67-5.044h-.042l-2.585 5.208c-.274.548-.343.658-.478.658-.152 0-.289-.234-.48-.59-.287-.534-1.245-2.316-1.382-2.645-.096-.219-.808-1.686-1.204-2.494h-.042l-.574 4.55c-.028.205-.04.357-.04.548 0 .22.164.302.368.342.206.042.314.055.425.055.11 0 .192.055.192.11 0 .11-.111.137-.288.137-.506 0-1.053-.04-1.272-.04-.234 0-.807.04-1.192.04-.122 0-.217-.028-.217-.137 0-.055.068-.11.19-.11.096 0 .177 0 .37-.027.329-.04.437-.507.493-.89l1.19-7.606zm12.11 3.33c0-1.768 0-2.096-.013-2.467-.027-.397-.136-.521-.52-.63a2.221 2.221 0 0 0-.48-.041c-.122 0-.204-.042-.204-.124 0-.082.095-.11.274-.11.63 0 1.396.028 1.737.028.382 0 3.051.014 3.284 0 .22-.013.411-.055.506-.068.07-.015.137-.055.193-.055.068 0 .08.055.08.11 0 .082-.068.219-.094.753-.015.124-.042.63-.07.767-.014.055-.04.192-.135.192-.082 0-.096-.055-.096-.15 0-.082-.015-.289-.083-.426-.096-.204-.191-.369-.795-.424-.204-.027-1.64-.055-1.887-.055-.054 0-.082.04-.082.11v2.877c0 .069.013.124.082.124.274 0 1.834 0 2.108-.028.286-.027.465-.054.574-.177.097-.084.137-.151.192-.151.055 0 .097.054.097.124 0 .067-.03.26-.097.848-.027.234-.055.7-.055.782 0 .095-.014.26-.124.26-.082 0-.109-.04-.109-.096-.013-.124-.013-.274-.042-.425-.068-.233-.217-.411-.668-.452-.22-.027-1.589-.055-1.89-.055-.055 0-.068.055-.068.123v.932c0 .398-.013 1.385 0 1.727.028.795.398.972 1.628.972.315 0 .822-.013 1.136-.15.3-.137.438-.384.52-.863.028-.124.055-.179.137-.179.094 0 .11.152.11.275 0 .26-.097 1.054-.166 1.288-.08.301-.191.301-.642.301-.903 0-1.628-.013-2.216-.041-.589-.013-1.041-.028-1.396-.028-.136 0-.397.015-.684.015-.288.013-.588.027-.835.027-.15 0-.23-.042-.23-.123 0-.056.038-.124.19-.124.177 0 .313-.013.423-.04.246-.056.315-.274.356-.618.054-.493.054-1.41.054-2.48V5.734zm9.073.904c0 .123.029.165.11.205.26.082.616.111.917.111.478 0 .642-.042.848-.193.37-.26.78-.768.78-1.726 0-1.644-1.121-2.07-1.834-2.07-.3 0-.588.015-.712.042-.08.027-.11.068-.11.165v3.466zm-1.532-.904c0-1.768 0-2.096-.014-2.467-.027-.397-.137-.521-.52-.63a2.221 2.221 0 0 0-.48-.041c-.122 0-.204-.042-.204-.124 0-.082.096-.11.274-.11.629 0 1.395.028 1.642.028.41 0 1.505-.028 1.875-.028.765 0 1.64.07 2.285.494.341.233.848.822.848 1.604 0 .863-.494 1.63-1.67 2.575 1.067 1.316 1.915 2.372 2.643 3.097.668.671 1.093.727 1.284.768.123.027.192.027.287.027.095 0 .15.07.15.124 0 .096-.08.123-.232.123h-1.148c-.671 0-1-.07-1.314-.234-.521-.26-.972-.808-1.642-1.712-.48-.63-.987-1.411-1.136-1.59a.277.277 0 0 0-.218-.082l-1.083-.028c-.052 0-.095.028-.095.097v.164c0 1.082.014 1.987.069 2.48.04.344.096.562.465.618.177.027.438.04.59.04.093 0 .15.07.15.124 0 .081-.096.123-.247.123-.697 0-1.697-.042-1.876-.042-.232 0-.998.042-1.476.042-.151 0-.234-.042-.234-.123 0-.054.042-.124.192-.124.177 0 .314-.013.423-.04.248-.056.316-.274.356-.618.056-.493.056-1.41.056-2.48V5.734z" fill="#939598"/><path d="M162.457 5.734c0-1.768 0-2.096-.014-2.467-.027-.397-.151-.534-.41-.616a1.513 1.513 0 0 0-.438-.055c-.124 0-.192-.027-.192-.137 0-.07.097-.097.287-.097.452 0 1.272.028 1.616.028.301 0 1.08-.028 1.546-.028.15 0 .246.028.246.097 0 .11-.07.137-.192.137-.124 0-.219.013-.356.04-.33.055-.424.22-.452.63-.027.372-.027.7-.027 2.468v2.055c0 1.124 0 2.056.055 2.548.041.316.123.494.48.55.162.027.436.04.614.04.137 0 .192.068.192.124 0 .081-.097.123-.233.123-.793 0-1.615-.042-1.942-.042-.275 0-1.095.042-1.575.042-.15 0-.232-.042-.232-.123 0-.056.04-.124.19-.124.18 0 .316-.013.427-.04.245-.056.313-.22.354-.563.056-.479.056-1.41.056-2.535V5.734zm5.555 4.33c-1.19-1-1.504-2.316-1.504-3.44 0-.794.26-2.165 1.409-3.192.876-.768 2.025-1.234 3.817-1.234.754 0 1.205.055 1.752.123.45.07.848.152 1.204.192.136.014.177.07.177.137 0 .097-.027.234-.054.645-.028.384-.028 1.027-.04 1.26-.015.165-.057.288-.166.288-.095 0-.123-.095-.123-.247a1.647 1.647 0 0 0-.465-1.082c-.41-.398-1.219-.685-2.325-.685-1.054 0-1.726.192-2.273.658-.889.767-1.108 1.89-1.108 3.028 0 2.768 2.135 4.084 3.748 4.084 1.07 0 1.657-.084 2.137-.617.204-.234.368-.562.409-.78.028-.18.054-.235.15-.235.083 0 .14.11.14.207 0 .137-.14 1.15-.262 1.548-.054.205-.11.26-.315.342-.478.191-1.396.26-2.175.26-1.644 0-3.038-.343-4.133-1.26m12.48-2.467c.054 0 .069-.027.054-.068l-1.135-2.96c-.014-.042-.026-.11-.055-.11-.04 0-.056.068-.067.11l-1.164 2.946c-.029.055 0 .082.042.082h2.325zm-2.572.645c-.069 0-.082.013-.11.08l-.643 1.563c-.123.289-.179.576-.179.713 0 .206.111.329.48.329h.177c.151 0 .179.055.179.124 0 .095-.07.123-.19.123-.398 0-.96-.04-1.343-.04-.122 0-.765.04-1.396.04-.151 0-.217-.028-.217-.123 0-.07.04-.124.137-.124.108 0 .246-.013.355-.013.548-.082.752-.439.999-1.029l3.147-7.33c.135-.329.232-.466.356-.466.176 0 .232.11.356.37.286.644 2.297 5.412 3.065 7.18.464 1.056.805 1.206 1.024 1.247.179.028.316.04.453.04.109 0 .164.043.164.125 0 .095-.07.123-.52.123-.424 0-1.301 0-2.312-.028-.22-.013-.356-.013-.356-.095 0-.07.027-.11.15-.124.082-.013.164-.123.11-.26l-.93-2.344c-.029-.068-.069-.081-.124-.081h-2.832z" fill="#939598"/><path d="M186.733 9.584c.028.905.177 1.18.41 1.261.204.068.439.083.629.083.137 0 .206.054.206.122 0 .097-.11.124-.275.124-.778 0-1.34-.042-1.56-.042-.107 0-.683.042-1.298.042-.164 0-.274-.014-.274-.124 0-.068.082-.122.192-.122.164 0 .381-.015.547-.055.314-.083.354-.398.37-1.413l.108-6.906c0-.232.082-.396.205-.396.15 0 .315.177.521.383.15.15 1.956 2 3.707 3.714.822.808 2.423 2.452 2.6 2.617h.054l-.12-5.18c-.015-.712-.124-.918-.411-1.028-.179-.068-.467-.068-.631-.068-.15 0-.192-.055-.192-.124 0-.095.124-.11.301-.11.63 0 1.274.028 1.533.028.137 0 .59-.028 1.177-.028.164 0 .274.015.274.11 0 .07-.07.124-.205.124-.124 0-.219 0-.37.04-.327.097-.425.302-.438.96l-.137 7.345c0 .26-.096.37-.193.37-.204 0-.367-.124-.491-.246-.752-.7-2.259-2.138-3.518-3.357-1.312-1.261-2.585-2.674-2.816-2.879h-.043l.138 4.755zm10.031 1.439c-.193-.082-.233-.137-.233-.398 0-.629.054-1.356.069-1.548 0-.177.055-.301.151-.301.108 0 .121.11.121.191 0 .152.04.399.111.603.26.865 1.162 1.152 1.916 1.152 1.038 0 1.668-.658 1.668-1.48 0-.507-.123-1.015-1.19-1.645l-.699-.411c-1.421-.836-1.887-1.617-1.887-2.645 0-1.425 1.369-2.343 3.037-2.343.78 0 1.396.11 1.71.192.11.028.165.068.165.15 0 .152-.041.48-.041 1.398 0 .247-.054.371-.15.371-.084 0-.124-.07-.124-.206 0-.11-.055-.466-.316-.768-.177-.219-.558-.548-1.34-.548-.862 0-1.641.453-1.641 1.248 0 .52.191.93 1.273 1.534l.493.274c1.586.877 2.078 1.768 2.078 2.823 0 .864-.327 1.562-1.204 2.178-.575.411-1.367.48-2.01.48-.7 0-1.437-.069-1.957-.3" fill="#939598"/></g></svg>